<?xml version="1.0" standalone="no"?>
<!DOCTYPE svg PUBLIC "-//W3C//DTD SVG 20010904//EN"
 "http://www.w3.org/TR/2001/REC-SVG-20010904/DTD/svg10.dtd">
<svg version="1.0" xmlns="http://www.w3.org/2000/svg"
 width="47.000000pt" height="31.000000pt" viewBox="0 0 47.000000 31.000000"
 preserveAspectRatio="xMidYMid meet">

<g transform="translate(0.000000,31.000000) scale(0.100000,-0.100000)"
fill="#000000" stroke="none">
<path d="M95 290 c-12 -19 -85 -244 -85 -261 0 -19 21 -31 38 -20 6 3 14 19
17 34 7 25 11 27 56 27 46 0 49 -2 63 -35 16 -38 27 -43 46 -20 10 11 3 40
-32 147 -41 122 -47 133 -70 136 -15 2 -29 -2 -33 -8z m49 -123 l14 -47 -34 0
-33 0 14 48 c8 26 15 49 15 51 0 13 12 -12 24 -52z"/>
<path d="M420 245 c0 -56 0 -56 -22 -41 -32 22 -61 20 -91 -8 -54 -50 -43
-154 19 -183 33 -16 35 -16 64 5 22 17 30 19 30 8 0 -17 22 -27 39 -17 8 5 11
47 9 147 -3 136 -4 139 -25 142 -22 3 -23 0 -23 -53z m-25 -79 c28 -20 26 -83
-4 -107 -17 -14 -28 -16 -41 -9 -36 19 -34 97 4 122 15 11 20 10 41 -6z"/>
</g>
</svg>
