<?xml version="1.0" standalone="no"?>
<!DOCTYPE svg PUBLIC "-//W3C//DTD SVG 20010904//EN"
 "http://www.w3.org/TR/2001/REC-SVG-20010904/DTD/svg10.dtd">
<svg version="1.0" xmlns="http://www.w3.org/2000/svg"
 width="38.000000pt" height="8.000000pt" viewBox="0 0 38.000000 8.000000"
 preserveAspectRatio="xMidYMid meet">

<g transform="translate(0.000000,8.000000) scale(0.100000,-0.100000)"
fill="#000000" stroke="none">
<path d="M16 64 c-9 -8 -16 -19 -16 -24 0 -11 29 -40 39 -40 9 0 41 33 41 43
0 9 -30 37 -40 37 -5 0 -16 -7 -24 -16z"/>
<path d="M166 64 c-9 -8 -16 -19 -16 -24 0 -11 29 -40 40 -40 11 0 40 29 40
40 0 11 -29 40 -40 40 -5 0 -16 -7 -24 -16z"/>
<path d="M324 72 c-20 -14 -23 -40 -5 -56 10 -9 20 -16 24 -16 9 0 37 30 37
40 0 10 -29 40 -38 40 -4 0 -12 -4 -18 -8z"/>
</g>
</svg>
