<?xml version="1.0" standalone="no"?>
<!DOCTYPE svg PUBLIC "-//W3C//DTD SVG 20010904//EN"
 "http://www.w3.org/TR/2001/REC-SVG-20010904/DTD/svg10.dtd">
<svg version="1.0" xmlns="http://www.w3.org/2000/svg"
 width="50.000000pt" height="50.000000pt" viewBox="0 0 50.000000 50.000000"
 preserveAspectRatio="xMidYMid meet">

<g transform="translate(0.000000,50.000000) scale(0.100000,-0.100000)"
fill="#000000" stroke="none">
<path d="M152 424 c-29 -20 -30 -77 -2 -97 l20 -14 -20 -18 c-11 -10 -20 -30
-20 -45 0 -15 9 -35 20 -45 20 -18 20 -18 -1 -33 -30 -21 -23 -81 13 -101 25
-14 29 -14 55 5 25 19 28 28 31 89 3 64 4 67 18 47 19 -27 65 -29 87 -4 23 25
21 65 -3 87 l-20 18 20 14 c13 9 20 25 20 48 0 50 -28 65 -120 65 -52 0 -82
-5 -98 -16z m117 -131 c-7 -10 -15 -20 -16 -22 -2 -2 -3 5 -3 17 0 14 6 22 16
22 14 0 15 -3 3 -17z"/>
</g>
</svg>
