<?xml version="1.0" standalone="no"?>
<!DOCTYPE svg PUBLIC "-//W3C//DTD SVG 20010904//EN"
 "http://www.w3.org/TR/2001/REC-SVG-20010904/DTD/svg10.dtd">
<svg version="1.0" xmlns="http://www.w3.org/2000/svg"
 width="41.000000pt" height="37.000000pt" viewBox="0 0 41.000000 37.000000"
 preserveAspectRatio="xMidYMid meet">

<g transform="translate(0.000000,37.000000) scale(0.100000,-0.100000)"
fill="#000000" stroke="none">
<path d="M57 342 c-11 -12 -17 -36 -17 -69 0 -33 -5 -55 -15 -63 -19 -16 -19
-39 0 -46 11 -5 15 -22 15 -64 0 -62 18 -90 58 -90 31 0 37 19 13 41 -16 15
-21 32 -21 69 0 34 -5 52 -16 58 -14 8 -14 10 0 21 10 9 16 30 16 57 0 32 6
49 20 61 11 10 20 23 20 30 0 20 -55 16 -73 -5z"/>
<path d="M280 345 c0 -9 7 -18 15 -21 11 -5 15 -21 15 -60 0 -41 4 -56 19 -66
20 -14 20 -14 0 -26 -15 -9 -19 -24 -19 -62 0 -36 -4 -52 -15 -56 -23 -9 -19
-44 6 -44 45 0 59 17 59 75 0 43 5 59 20 72 11 10 20 22 20 28 0 6 -9 18 -20
28 -15 13 -20 29 -20 72 0 43 -4 56 -19 65 -29 15 -61 12 -61 -5z"/>
</g>
</svg>
