<?xml version="1.0" standalone="no"?>
<!DOCTYPE svg PUBLIC "-//W3C//DTD SVG 20010904//EN"
 "http://www.w3.org/TR/2001/REC-SVG-20010904/DTD/svg10.dtd">
<svg version="1.0" xmlns="http://www.w3.org/2000/svg"
 width="48.000000pt" height="37.000000pt" viewBox="0 0 48.000000 37.000000"
 preserveAspectRatio="xMidYMid meet">

<g transform="translate(0.000000,37.000000) scale(0.100000,-0.100000)"
fill="#000000" stroke="none">
<path d="M57 342 c-11 -12 -17 -36 -17 -69 0 -33 -5 -55 -15 -63 -19 -16 -19
-39 0 -46 11 -5 15 -22 15 -64 0 -62 18 -90 58 -90 31 0 37 19 13 41 -16 15
-21 32 -21 69 0 34 -5 52 -16 58 -14 8 -14 10 0 21 10 9 16 30 16 57 0 32 6
49 20 61 11 10 20 23 20 30 0 20 -55 16 -73 -5z"/>
<path d="M350 347 c0 -7 9 -18 20 -25 16 -9 20 -23 20 -62 0 -38 5 -52 21 -63
l21 -15 -21 -7 c-18 -5 -21 -14 -21 -59 0 -44 -4 -56 -22 -68 -26 -17 -17 -38
17 -38 38 0 55 25 55 83 0 37 5 56 20 72 l20 22 -20 18 c-15 14 -20 31 -20 71
0 34 -5 58 -16 68 -19 19 -74 21 -74 3z"/>
<path d="M222 281 c-8 -4 -12 -19 -10 -32 2 -19 9 -24 33 -24 33 0 45 25 25
50 -14 17 -29 19 -48 6z"/>
<path d="M227 139 c-24 -14 -21 -45 6 -64 21 -15 21 -17 5 -29 -22 -16 -23
-26 -4 -26 22 0 46 40 46 77 0 37 -25 57 -53 42z"/>
</g>
</svg>
