<?xml version="1.0" standalone="no"?>
<!DOCTYPE svg PUBLIC "-//W3C//DTD SVG 20010904//EN"
 "http://www.w3.org/TR/2001/REC-SVG-20010904/DTD/svg10.dtd">
<svg version="1.0" xmlns="http://www.w3.org/2000/svg"
 width="512.000000pt" height="512.000000pt" viewBox="0 0 512.000000 512.000000"
 preserveAspectRatio="xMidYMid meet">

<g transform="translate(0.000000,512.000000) scale(0.100000,-0.100000)"
fill="#000000" stroke="none">
<path d="M1119 4598 c-309 -28 -563 -281 -598 -595 -26 -241 73 -477 259 -616
61 -46 162 -98 213 -111 l27 -6 0 -105 0 -105 28 -11 c31 -12 231 -15 280 -5
l32 8 0 107 0 108 43 12 c168 50 323 185 402 353 55 116 68 184 63 323 -4 102
-9 132 -36 202 -68 183 -201 323 -378 396 -32 13 -72 28 -89 32 -58 14 -171
20 -246 13z m225 -367 c75 -37 128 -92 164 -170 21 -45 26 -71 27 -136 0 -71
-4 -88 -33 -147 -38 -77 -92 -130 -171 -166 -80 -37 -192 -37 -272 0 -79 36
-133 89 -171 166 -29 58 -33 76 -33 147 0 67 5 90 28 140 84 180 285 253 461
166z"/>
<path d="M3785 4594 c-40 -8 -110 -33 -165 -60 -77 -38 -110 -62 -176 -128
-211 -212 -261 -511 -129 -781 75 -154 213 -280 368 -336 l64 -23 7 -182 c8
-202 2 -244 -41 -295 -52 -62 -9 -59 -982 -59 -559 0 -917 -4 -964 -10 -134
-19 -271 -71 -364 -139 l-43 -31 1 -308 c1 -282 2 -303 15 -257 57 202 210
356 392 394 36 8 334 11 951 11 597 0 917 4 957 11 193 35 362 197 402 384 6
28 14 147 18 266 l6 216 52 16 c125 40 284 169 355 290 78 132 111 291 91 437
-55 400 -420 662 -815 584z"/>
<path d="M1074 1870 c-79 -17 -203 -71 -271 -120 -291 -204 -374 -598 -192
-907 44 -74 158 -188 232 -232 218 -128 486 -128 704 0 73 43 188 158 231 231
75 126 110 291 92 430 -33 266 -201 475 -458 568 -73 27 -104 33 -192 36 -58
2 -123 -1 -146 -6z m238 -356 c133 -47 219 -172 219 -318 0 -196 -141 -338
-336 -338 -137 -1 -247 67 -306 188 -62 126 -38 283 59 382 98 100 234 132
364 86z"/>
</g>
</svg>
